  0
SECTION
  2
HEADER
  9
$MEASUREMENT
  70
  1
  9
$INSUNITS
  70
  4
  0
ENDSEC
  0
SECTION
  2
TABLES
  0
TABLE
  2
LTYPE
 70
     1
  0
LTYPE
  2
CONTINUOUS
 70
    64
  3
Ausgezogene Linie
 72
    65
 73
     0
 40
0.0
  0
ENDTAB
  0
TABLE
  2
LAYER
 70
     3
  0
LAYER
  2
Kontur
 70
    64
 62
     7
  6
CONTINUOUS
  0
LAYER
  2
Gravur
 70
    64
 62
     7
  6
CONTINUOUS
  0
LAYER
  2
Bezugspunkte
 70
    64
 62
     1
  6
CONTINUOUS
  0
ENDTAB
  0
TABLE
  2
STYLE
 70
     1
  0
STYLE
  2
TXT
 70
    64
 40
0.0
 41
1.0
 50
0.0
 71
     0
 42
3.500000
  3
TXT
  0
ENDTAB
  0
ENDSEC
  0
SECTION
  2
BLOCKS
  0
ENDSEC
  0
SECTION
  2
ENTITIES
  0
LINE
  8
Kontur
 62
   7
 39
0.100
  6
CONTINUOUS
 10
101.26000
 20
128.40000
 30
 0
 11
101.26000
 21
0.00000
  0
LINE
  8
Kontur
 62
   7
 39
0.100
  6
CONTINUOUS
 10
101.26000
 20
0.00000
 30
 0
 11
0.00000
 21
0.00000
  0
LINE
  8
Kontur
 62
   7
 39
0.100
  6
CONTINUOUS
 10
0.00000
 20
0.00000
 30
 0
 11
0.00000
 21
128.40000
  0
LINE
  8
Kontur
 62
   7
 39
0.100
  6
CONTINUOUS
 10
0.00000
 20
128.40000
 30
 0
 11
101.26000
 21
128.40000
  0
ARC
  8
Kontur
 62
   7
 39
0.100
  6
CONTINUOUS
 10
3.00000
 20
41.49500
 30
 0
 40
1.50000
 50
180.00000
 51
270.00000
  0
LINE
  8
Kontur
 62
   7
 39
0.100
  6
CONTINUOUS
 10
3.00000
 20
39.99500
 30
 0
 11
98.50000
 21
39.99500
  0
ARC
  8
Kontur
 62
   7
 39
0.100
  6
CONTINUOUS
 10
98.50000
 20
41.49500
 30
 0
 40
1.50000
 50
270.00000
 51
360.00000
  0
LINE
  8
Kontur
 62
   7
 39
0.100
  6
CONTINUOUS
 10
100.00000
 20
41.49500
 30
 0
 11
100.00000
 21
98.49500
  0
ARC
  8
Kontur
 62
   7
 39
0.100
  6
CONTINUOUS
 10
98.50000
 20
98.49500
 30
 0
 40
1.50000
 50
0.00000
 51
90.00000
  0
LINE
  8
Kontur
 62
   7
 39
0.100
  6
CONTINUOUS
 10
98.50000
 20
99.99500
 30
 0
 11
3.00000
 21
99.99500
  0
ARC
  8
Kontur
 62
   7
 39
0.100
  6
CONTINUOUS
 10
3.00000
 20
98.49500
 30
 0
 40
1.50000
 50
90.00000
 51
180.00000
  0
LINE
  8
Kontur
 62
   7
 39
0.100
  6
CONTINUOUS
 10
1.50000
 20
98.49500
 30
 0
 11
1.50000
 21
41.49500
  0
ARC
  8
Kontur
 62
   7
 39
0.100
  6
CONTINUOUS
 10
0.47355
 20
122.74855
 30
 0
 40
0.50000
 50
135.00000
 51
314.99999
  0
LINE
  8
Kontur
 62
   7
 39
0.100
  6
CONTINUOUS
 10
0.82711
 20
122.39500
 30
 0
 11
100.67289
 21
122.39500
  0
ARC
  8
Kontur
 62
   7
 39
0.100
  6
CONTINUOUS
 10
101.02645
 20
122.74855
 30
 0
 40
0.50000
 50
225.00000
 51
404.99999
  0
LINE
  8
Kontur
 62
   7
 39
0.100
  6
CONTINUOUS
 10
101.38000
 20
123.10211
 30
 0
 11
101.38000
 21
127.68789
  0
ARC
  8
Kontur
 62
   7
 39
0.100
  6
CONTINUOUS
 10
101.02645
 20
128.04145
 30
 0
 40
0.50000
 50
315.00000
 51
494.99999
  0
LINE
  8
Kontur
 62
   7
 39
0.100
  6
CONTINUOUS
 10
100.67289
 20
128.39500
 30
 0
 11
0.82711
 21
128.39500
  0
ARC
  8
Kontur
 62
   7
 39
0.100
  6
CONTINUOUS
 10
0.47355
 20
128.04145
 30
 0
 40
0.50000
 50
45.00000
 51
224.99999
  0
LINE
  8
Kontur
 62
   7
 39
0.100
  6
CONTINUOUS
 10
0.12000
 20
127.68789
 30
 0
 11
0.12000
 21
123.10211
  0
ARC
  8
Kontur
 62
   7
 39
0.100
  6
CONTINUOUS
 10
0.47355
 20
0.34855
 30
 0
 40
0.50000
 50
135.00000
 51
314.99999
  0
LINE
  8
Kontur
 62
   7
 39
0.100
  6
CONTINUOUS
 10
0.82711
 20
-0.00500
 30
 0
 11
100.67289
 21
-0.00500
  0
ARC
  8
Kontur
 62
   7
 39
0.100
  6
CONTINUOUS
 10
101.02645
 20
0.34855
 30
 0
 40
0.50000
 50
225.00000
 51
404.99999
  0
LINE
  8
Kontur
 62
   7
 39
0.100
  6
CONTINUOUS
 10
101.38000
 20
0.70211
 30
 0
 11
101.38000
 21
5.28789
  0
ARC
  8
Kontur
 62
   7
 39
0.100
  6
CONTINUOUS
 10
101.02645
 20
5.64145
 30
 0
 40
0.50000
 50
315.00000
 51
494.99999
  0
LINE
  8
Kontur
 62
   7
 39
0.100
  6
CONTINUOUS
 10
100.67289
 20
5.99500
 30
 0
 11
0.82711
 21
5.99500
  0
ARC
  8
Kontur
 62
   7
 39
0.100
  6
CONTINUOUS
 10
0.47355
 20
5.64145
 30
 0
 40
0.50000
 50
45.00000
 51
224.99999
  0
LINE
  8
Kontur
 62
   7
 39
0.100
  6
CONTINUOUS
 10
0.12000
 20
5.28789
 30
 0
 11
0.12000
 21
0.70211
  0
LINE
  8
Gravur
 62
   255
 39
0.600
  6
CONTINUOUS
 10
21.15000
 20
124.29500
 30
 0
 11
23.15000
 21
124.29500
  0
LINE
  8
Gravur
 62
   255
 39
0.600
  6
CONTINUOUS
 10
20.75000
 20
123.29500
 30
 0
 11
22.15000
 21
126.89500
  0
LINE
  8
Gravur
 62
   255
 39
0.600
  6
CONTINUOUS
 10
22.15000
 20
126.89500
 30
 0
 11
23.55000
 21
123.29500
  0
LINE
  8
Gravur
 62
   255
 39
0.600
  6
CONTINUOUS
 10
24.51000
 20
123.29500
 30
 0
 11
24.51000
 21
125.69500
  0
LINE
  8
Gravur
 62
   255
 39
0.600
  6
CONTINUOUS
 10
24.51000
 20
125.69500
 30
 0
 11
24.51000
 21
124.69500
  0
ARC
  8
Gravur
 62
   255
 39
0.600
  6
CONTINUOUS
 10
25.51000
 20
124.69500
 30
 0
 40
1.00000
 50
0.00000
 51
180.00000
  0
LINE
  8
Gravur
 62
   255
 39
0.600
  6
CONTINUOUS
 10
26.51000
 20
124.69500
 30
 0
 11
26.51000
 21
123.29500
  0
LINE
  8
Gravur
 62
   255
 39
0.600
  6
CONTINUOUS
 10
27.47000
 20
124.29500
 30
 0
 11
27.47000
 21
124.69500
  0
ARC
  8
Gravur
 62
   255
 39
0.600
  6
CONTINUOUS
 10
28.47000
 20
124.69500
 30
 0
 40
1.00000
 50
0.00000
 51
180.00000
  0
LINE
  8
Gravur
 62
   255
 39
0.600
  6
CONTINUOUS
 10
29.47000
 20
124.69500
 30
 0
 11
29.47000
 21
124.29500
  0
ARC
  8
Gravur
 62
   255
 39
0.600
  6
CONTINUOUS
 10
28.47000
 20
124.29500
 30
 0
 40
1.00000
 50
-180.00000
 51
0.00000
  0
LINE
  8
Gravur
 62
   255
 39
0.600
  6
CONTINUOUS
 10
30.43000
 20
126.89500
 30
 0
 11
30.43000
 21
126.69500
  0
LINE
  8
Gravur
 62
   255
 39
0.600
  6
CONTINUOUS
 10
30.43000
 20
125.69500
 30
 0
 11
30.43000
 21
123.29500
  0
LINE
  8
Gravur
 62
   255
 39
0.600
  6
CONTINUOUS
 10
31.39000
 20
126.89500
 30
 0
 11
31.39000
 21
123.29500
  0
LINE
  8
Gravur
 62
   255
 39
0.600
  6
CONTINUOUS
 10
31.39000
 20
123.29500
 30
 0
 11
31.39000
 21
124.09500
  0
LINE
  8
Gravur
 62
   255
 39
0.600
  6
CONTINUOUS
 10
31.39000
 20
124.09500
 30
 0
 11
33.39000
 21
125.69500
  0
LINE
  8
Gravur
 62
   255
 39
0.600
  6
CONTINUOUS
 10
33.39000
 20
125.69500
 30
 0
 11
32.19000
 21
124.73500
  0
LINE
  8
Gravur
 62
   255
 39
0.600
  6
CONTINUOUS
 10
32.19000
 20
124.73500
 30
 0
 11
33.39000
 21
123.29500
  0
LINE
  8
Gravur
 62
   255
 39
0.600
  6
CONTINUOUS
 10
34.35000
 20
126.89500
 30
 0
 11
34.35000
 21
126.69500
  0
LINE
  8
Gravur
 62
   255
 39
0.600
  6
CONTINUOUS
 10
34.35000
 20
125.69500
 30
 0
 11
34.35000
 21
123.29500
  0
ARC
  8
Gravur
 62
   255
 39
0.600
  6
CONTINUOUS
 10
36.21847
 20
124.62579
 30
 0
 40
1.35905
 50
228.05192
 51
293.02344
  0
ARC
  8
Gravur
 62
   255
 39
0.600
  6
CONTINUOUS
 10
36.54994
 20
123.84750
 30
 0
 40
0.51311
 50
292.94873
 51
431.82316
  0
LINE
  8
Gravur
 62
   255
 39
0.600
  6
CONTINUOUS
 10
36.71000
 20
124.33500
 30
 0
 11
35.63000
 21
124.69500
  0
ARC
  8
Gravur
 62
   255
 39
0.600
  6
CONTINUOUS
 10
35.77408
 20
125.13253
 30
 0
 40
0.46064
 50
119.10762
 51
251.77304
  0
ARC
  8
Gravur
 62
   255
 39
0.600
  6
CONTINUOUS
 10
36.24718
 20
124.30138
 30
 0
 40
1.41699
 50
54.50145
 51
119.47297
  0
LINE
  8
Gravur
 62
   255
 39
0.600
  6
CONTINUOUS
 10
40.59000
 20
123.29500
 30
 0
 11
40.59000
 21
126.89500
  0
LINE
  8
Gravur
 62
   255
 39
0.600
  6
CONTINUOUS
 10
40.59000
 20
126.89500
 30
 0
 11
42.99000
 21
123.29500
  0
LINE
  8
Gravur
 62
   255
 39
0.600
  6
CONTINUOUS
 10
42.99000
 20
123.29500
 30
 0
 11
42.99000
 21
126.89500
  0
LINE
  8
Gravur
 62
   255
 39
0.600
  6
CONTINUOUS
 10
43.95000
 20
124.29500
 30
 0
 11
43.95000
 21
124.69500
  0
ARC
  8
Gravur
 62
   255
 39
0.600
  6
CONTINUOUS
 10
44.95000
 20
124.69500
 30
 0
 40
1.00000
 50
0.00000
 51
180.00000
  0
LINE
  8
Gravur
 62
   255
 39
0.600
  6
CONTINUOUS
 10
45.95000
 20
124.69500
 30
 0
 11
45.95000
 21
124.29500
  0
ARC
  8
Gravur
 62
   255
 39
0.600
  6
CONTINUOUS
 10
44.95000
 20
124.29500
 30
 0
 40
1.00000
 50
-180.00000
 51
0.00000
  0
LINE
  8
Gravur
 62
   255
 39
0.600
  6
CONTINUOUS
 10
46.91000
 20
123.29500
 30
 0
 11
46.91000
 21
125.69500
  0
LINE
  8
Gravur
 62
   255
 39
0.600
  6
CONTINUOUS
 10
46.91000
 20
125.69500
 30
 0
 11
46.91000
 21
124.89500
  0
ARC
  8
Gravur
 62
   255
 39
0.600
  6
CONTINUOUS
 10
47.71000
 20
124.89500
 30
 0
 40
0.80000
 50
0.00000
 51
180.00000
  0
LINE
  8
Gravur
 62
   255
 39
0.600
  6
CONTINUOUS
 10
48.51000
 20
124.89500
 30
 0
 11
48.51000
 21
123.29500
  0
LINE
  8
Gravur
 62
   255
 39
0.600
  6
CONTINUOUS
 10
48.51000
 20
123.29500
 30
 0
 11
48.51000
 21
124.89500
  0
ARC
  8
Gravur
 62
   255
 39
0.600
  6
CONTINUOUS
 10
49.31000
 20
124.89500
 30
 0
 40
0.80000
 50
0.00000
 51
180.00000
  0
LINE
  8
Gravur
 62
   255
 39
0.600
  6
CONTINUOUS
 10
50.11000
 20
124.89500
 30
 0
 11
50.11000
 21
123.29500
  0
LINE
  8
Gravur
 62
   255
 39
0.600
  6
CONTINUOUS
 10
53.15000
 20
125.69500
 30
 0
 11
53.15000
 21
124.29500
  0
ARC
  8
Gravur
 62
   255
 39
0.600
  6
CONTINUOUS
 10
52.11000
 20
124.29500
 30
 0
 40
1.04000
 50
-180.00000
 51
0.00000
  0
LINE
  8
Gravur
 62
   255
 39
0.600
  6
CONTINUOUS
 10
51.07000
 20
124.29500
 30
 0
 11
51.07000
 21
124.69500
  0
ARC
  8
Gravur
 62
   255
 39
0.600
  6
CONTINUOUS
 10
52.11000
 20
124.69500
 30
 0
 40
1.04000
 50
0.00000
 51
180.00000
  0
LINE
  8
Gravur
 62
   255
 39
0.600
  6
CONTINUOUS
 10
53.15000
 20
124.69500
 30
 0
 11
53.15000
 21
123.73500
  0
ARC
  8
Gravur
 62
   255
 39
0.600
  6
CONTINUOUS
 10
53.72994
 20
123.78879
 30
 0
 40
0.58243
 50
185.29897
 51
260.11981
  0
LINE
  8
Gravur
 62
   255
 39
0.600
  6
CONTINUOUS
 10
56.59000
 20
126.89500
 30
 0
 11
56.59000
 21
124.29500
  0
ARC
  8
Gravur
 62
   255
 39
0.600
  6
CONTINUOUS
 10
55.59000
 20
124.25500
 30
 0
 40
1.00080
 50
-177.70939
 51
2.29061
  0
LINE
  8
Gravur
 62
   255
 39
0.600
  6
CONTINUOUS
 10
54.59000
 20
124.21500
 30
 0
 11
54.59000
 21
124.69500
  0
ARC
  8
Gravur
 62
   255
 39
0.600
  6
CONTINUOUS
 10
55.59000
 20
124.69500
 30
 0
 40
1.00000
 50
0.00000
 51
180.00000
  0
LINE
  8
Gravur
 62
   255
 39
0.600
  6
CONTINUOUS
 10
56.59000
 20
124.69500
 30
 0
 11
56.59000
 21
123.29500
  0
ARC
  8
Gravur
 62
   255
 39
0.600
  6
CONTINUOUS
 10
58.45847
 20
124.62579
 30
 0
 40
1.35905
 50
228.05192
 51
293.02344
  0
ARC
  8
Gravur
 62
   255
 39
0.600
  6
CONTINUOUS
 10
58.78994
 20
123.84750
 30
 0
 40
0.51311
 50
292.94873
 51
431.82316
  0
LINE
  8
Gravur
 62
   255
 39
0.600
  6
CONTINUOUS
 10
58.95000
 20
124.33500
 30
 0
 11
57.87000
 21
124.69500
  0
ARC
  8
Gravur
 62
   255
 39
0.600
  6
CONTINUOUS
 10
58.01408
 20
125.13253
 30
 0
 40
0.46064
 50
119.10762
 51
251.77304
  0
ARC
  8
Gravur
 62
   255
 39
0.600
  6
CONTINUOUS
 10
58.48718
 20
124.30138
 30
 0
 40
1.41699
 50
54.50145
 51
119.47297
  0
LINE
  8
Gravur
 62
   255
 39
0.600
  6
CONTINUOUS
 10
62.83000
 20
125.09500
 30
 0
 11
62.83000
 21
124.89500
  0
LINE
  8
Gravur
 62
   255
 39
0.600
  6
CONTINUOUS
 10
62.83000
 20
123.49500
 30
 0
 11
62.83000
 21
123.29500
  0
LINE
  8
Gravur
 62
   255
 39
0.600
  6
CONTINUOUS
 10
63.79000
 20
125.09500
 30
 0
 11
63.79000
 21
124.89500
  0
LINE
  8
Gravur
 62
   255
 39
0.600
  6
CONTINUOUS
 10
63.79000
 20
123.49500
 30
 0
 11
63.79000
 21
123.29500
  0
LINE
  8
Gravur
 62
   255
 39
0.600
  6
CONTINUOUS
 10
67.31000
 20
125.09500
 30
 0
 11
69.31000
 21
125.09500
  0
LINE
  8
Gravur
 62
   255
 39
0.600
  6
CONTINUOUS
 10
69.71000
 20
126.89500
 30
 0
 11
67.31000
 21
126.89500
  0
LINE
  8
Gravur
 62
   255
 39
0.600
  6
CONTINUOUS
 10
67.31000
 20
126.89500
 30
 0
 11
67.31000
 21
123.29500
  0
LINE
  8
Gravur
 62
   255
 39
0.600
  6
CONTINUOUS
 10
67.31000
 20
123.29500
 30
 0
 11
69.71000
 21
123.29500
  0
LINE
  8
Gravur
 62
   255
 39
0.600
  6
CONTINUOUS
 10
70.67000
 20
125.69500
 30
 0
 11
70.67000
 21
124.29500
  0
ARC
  8
Gravur
 62
   255
 39
0.600
  6
CONTINUOUS
 10
71.67000
 20
124.29500
 30
 0
 40
1.00000
 50
180.00000
 51
360.00000
  0
LINE
  8
Gravur
 62
   255
 39
0.600
  6
CONTINUOUS
 10
72.67000
 20
124.29500
 30
 0
 11
72.67000
 21
123.29500
  0
LINE
  8
Gravur
 62
   255
 39
0.600
  6
CONTINUOUS
 10
72.67000
 20
123.29500
 30
 0
 11
72.67000
 21
125.69500
  0
ARC
  8
Gravur
 62
   255
 39
0.600
  6
CONTINUOUS
 10
74.62170
 20
124.70187
 30
 0
 40
0.99173
 50
42.74595
 51
180.39666
  0
LINE
  8
Gravur
 62
   255
 39
0.600
  6
CONTINUOUS
 10
73.63000
 20
124.69500
 30
 0
 11
73.63000
 21
124.29500
  0
ARC
  8
Gravur
 62
   255
 39
0.600
  6
CONTINUOUS
 10
74.62371
 20
124.29583
 30
 0
 40
0.99371
 50
180.04758
 51
328.39092
  0
LINE
  8
Gravur
 62
   255
 39
0.600
  6
CONTINUOUS
 10
76.43000
 20
126.89500
 30
 0
 11
76.43000
 21
123.77500
  0
ARC
  8
Gravur
 62
   255
 39
0.600
  6
CONTINUOUS
 10
76.91784
 20
123.77487
 30
 0
 40
0.48784
 50
179.98432
 51
259.62682
  0
LINE
  8
Gravur
 62
   255
 39
0.600
  6
CONTINUOUS
 10
77.79000
 20
126.89500
 30
 0
 11
77.79000
 21
126.69500
  0
LINE
  8
Gravur
 62
   255
 39
0.600
  6
CONTINUOUS
 10
77.79000
 20
125.69500
 30
 0
 11
77.79000
 21
123.29500
  0
LINE
  8
Gravur
 62
   255
 39
0.600
  6
CONTINUOUS
 10
80.75000
 20
126.89500
 30
 0
 11
80.75000
 21
124.29500
  0
ARC
  8
Gravur
 62
   255
 39
0.600
  6
CONTINUOUS
 10
79.75000
 20
124.25500
 30
 0
 40
1.00080
 50
-177.70939
 51
2.29061
  0
LINE
  8
Gravur
 62
   255
 39
0.600
  6
CONTINUOUS
 10
78.75000
 20
124.21500
 30
 0
 11
78.75000
 21
124.69500
  0
ARC
  8
Gravur
 62
   255
 39
0.600
  6
CONTINUOUS
 10
79.75000
 20
124.69500
 30
 0
 40
1.00000
 50
0.00000
 51
180.00000
  0
LINE
  8
Gravur
 62
   255
 39
0.600
  6
CONTINUOUS
 10
80.75000
 20
124.69500
 30
 0
 11
80.75000
 21
123.29500
  0
LINE
  8
Gravur
 62
   7
 39
0.400
  6
CONTINUOUS
 10
59.75073
 20
19.34067
 30
 0
 11
59.75073
 21
21.19172
  0
ARC
  8
Gravur
 62
   7
 39
0.400
  6
CONTINUOUS
 10
60.46268
 20
21.19172
 30
 0
 40
0.71194
 50
0.00000
 51
180.00000
  0
LINE
  8
Gravur
 62
   7
 39
0.400
  6
CONTINUOUS
 10
61.17462
 20
21.19172
 30
 0
 11
61.17462
 21
20.90694
  0
ARC
  8
Gravur
 62
   7
 39
0.400
  6
CONTINUOUS
 10
60.46268
 20
20.90694
 30
 0
 40
0.71194
 50
-180.00000
 51
0.00000
  0
LINE
  8
Gravur
 62
   7
 39
0.400
  6
CONTINUOUS
 10
59.75073
 20
20.90694
 30
 0
 11
59.75073
 21
21.90367
  0
LINE
  8
Gravur
 62
   7
 39
0.400
  6
CONTINUOUS
 10
61.85873
 20
22.75700
 30
 0
 11
61.85873
 21
20.53573
  0
ARC
  8
Gravur
 62
   7
 39
0.400
  6
CONTINUOUS
 10
62.20605
 20
20.53564
 30
 0
 40
0.34731
 50
179.98432
 51
259.62682
  0
LINE
  8
Gravur
 62
   7
 39
0.400
  6
CONTINUOUS
 10
64.30858
 20
21.90167
 30
 0
 11
64.30858
 21
20.90494
  0
ARC
  8
Gravur
 62
   7
 39
0.400
  6
CONTINUOUS
 10
63.56816
 20
20.90494
 30
 0
 40
0.74042
 50
-180.00000
 51
0.00000
  0
LINE
  8
Gravur
 62
   7
 39
0.400
  6
CONTINUOUS
 10
62.82773
 20
20.90494
 30
 0
 11
62.82773
 21
21.18972
  0
ARC
  8
Gravur
 62
   7
 39
0.400
  6
CONTINUOUS
 10
63.56816
 20
21.18972
 30
 0
 40
0.74042
 50
0.00000
 51
180.00000
  0
LINE
  8
Gravur
 62
   7
 39
0.400
  6
CONTINUOUS
 10
64.30858
 20
21.18972
 30
 0
 11
64.30858
 21
20.50626
  0
ARC
  8
Gravur
 62
   7
 39
0.400
  6
CONTINUOUS
 10
64.72146
 20
20.54455
 30
 0
 40
0.41466
 50
185.29897
 51
260.11981
  0
LINE
  8
Gravur
 62
   7
 39
0.400
  6
CONTINUOUS
 10
65.33373
 20
21.90167
 30
 0
 11
66.01720
 21
20.27843
  0
LINE
  8
Gravur
 62
   7
 39
0.400
  6
CONTINUOUS
 10
66.75762
 20
21.90167
 30
 0
 11
65.73242
 21
19.59497
  0
ARC
  8
Gravur
 62
   7
 39
0.400
  6
CONTINUOUS
 10
65.33810
 20
19.77011
 30
 0
 40
0.43146
 50
269.41954
 51
336.05092
  0
LINE
  8
Gravur
 62
   7
 39
0.400
  6
CONTINUOUS
 10
58.21373
 20
15.10767
 30
 0
 11
58.21373
 21
16.95872
  0
ARC
  8
Gravur
 62
   7
 39
0.400
  6
CONTINUOUS
 10
58.92568
 20
16.95872
 30
 0
 40
0.71194
 50
0.00000
 51
180.00000
  0
LINE
  8
Gravur
 62
   7
 39
0.400
  6
CONTINUOUS
 10
59.63762
 20
16.95872
 30
 0
 11
59.63762
 21
16.67394
  0
ARC
  8
Gravur
 62
   7
 39
0.400
  6
CONTINUOUS
 10
58.92568
 20
16.67394
 30
 0
 40
0.71194
 50
-180.00000
 51
0.00000
  0
LINE
  8
Gravur
 62
   7
 39
0.400
  6
CONTINUOUS
 10
58.21373
 20
16.67394
 30
 0
 11
58.21373
 21
17.67067
  0
LINE
  8
Gravur
 62
   7
 39
0.400
  6
CONTINUOUS
 10
61.80258
 20
17.67067
 30
 0
 11
61.80258
 21
16.67394
  0
ARC
  8
Gravur
 62
   7
 39
0.400
  6
CONTINUOUS
 10
61.06216
 20
16.67394
 30
 0
 40
0.74042
 50
-180.00000
 51
0.00000
  0
LINE
  8
Gravur
 62
   7
 39
0.400
  6
CONTINUOUS
 10
60.32173
 20
16.67394
 30
 0
 11
60.32173
 21
16.95872
  0
ARC
  8
Gravur
 62
   7
 39
0.400
  6
CONTINUOUS
 10
61.06216
 20
16.95872
 30
 0
 40
0.74042
 50
0.00000
 51
180.00000
  0
LINE
  8
Gravur
 62
   7
 39
0.400
  6
CONTINUOUS
 10
61.80258
 20
16.95872
 30
 0
 11
61.80258
 21
16.27526
  0
ARC
  8
Gravur
 62
   7
 39
0.400
  6
CONTINUOUS
 10
62.21546
 20
16.31355
 30
 0
 40
0.41466
 50
185.29897
 51
260.11981
  0
LINE
  8
Gravur
 62
   7
 39
0.400
  6
CONTINUOUS
 10
62.82873
 20
17.67167
 30
 0
 11
62.82873
 21
16.67494
  0
ARC
  8
Gravur
 62
   7
 39
0.400
  6
CONTINUOUS
 10
63.54068
 20
16.67494
 30
 0
 40
0.71194
 50
180.00000
 51
360.00000
  0
LINE
  8
Gravur
 62
   7
 39
0.400
  6
CONTINUOUS
 10
64.25262
 20
16.67494
 30
 0
 11
64.25262
 21
15.96300
  0
LINE
  8
Gravur
 62
   7
 39
0.400
  6
CONTINUOUS
 10
64.25262
 20
15.96300
 30
 0
 11
64.25262
 21
17.67167
  0
ARC
  8
Gravur
 62
   7
 39
0.400
  6
CONTINUOUS
 10
65.58251
 20
16.91045
 30
 0
 40
0.96757
 50
228.05192
 51
293.02344
  0
ARC
  8
Gravur
 62
   7
 39
0.400
  6
CONTINUOUS
 10
65.81850
 20
16.35635
 30
 0
 40
0.36530
 50
292.94873
 51
431.82316
  0
LINE
  8
Gravur
 62
   7
 39
0.400
  6
CONTINUOUS
 10
65.93246
 20
16.70342
 30
 0
 11
65.16356
 21
16.95972
  0
ARC
  8
Gravur
 62
   7
 39
0.400
  6
CONTINUOUS
 10
65.26613
 20
17.27122
 30
 0
 40
0.32795
 50
119.10762
 51
251.77304
  0
ARC
  8
Gravur
 62
   7
 39
0.400
  6
CONTINUOUS
 10
65.60295
 20
16.67949
 30
 0
 40
1.00882
 50
54.50145
 51
119.47297
  0
LINE
  8
Gravur
 62
   7
 39
0.400
  6
CONTINUOUS
 10
66.87173
 20
16.81733
 30
 0
 11
68.29562
 21
16.81733
  0
LINE
  8
Gravur
 62
   7
 39
0.400
  6
CONTINUOUS
 10
68.29562
 20
16.81733
 30
 0
 11
68.29562
 21
16.95972
  0
ARC
  8
Gravur
 62
   7
 39
0.400
  6
CONTINUOUS
 10
67.58368
 20
16.95972
 30
 0
 40
0.71194
 50
0.00000
 51
180.00000
  0
LINE
  8
Gravur
 62
   7
 39
0.400
  6
CONTINUOUS
 10
66.87173
 20
16.95972
 30
 0
 11
66.87173
 21
16.67494
  0
ARC
  8
Gravur
 62
   7
 39
0.400
  6
CONTINUOUS
 10
67.61831
 20
16.67435
 30
 0
 40
0.74658
 50
179.95424
 51
322.44599
  0
LINE
  8
Gravur
 62
   7
 39
0.400
  6
CONTINUOUS
 10
71.32373
 20
20.19500
 30
 0
 11
71.32373
 21
21.90367
  0
LINE
  8
Gravur
 62
   7
 39
0.400
  6
CONTINUOUS
 10
71.32373
 20
21.90367
 30
 0
 11
71.32373
 21
21.33411
  0
ARC
  8
Gravur
 62
   7
 39
0.400
  6
CONTINUOUS
 10
71.89329
 20
21.33411
 30
 0
 40
0.56956
 50
0.00000
 51
180.00000
  0
LINE
  8
Gravur
 62
   7
 39
0.400
  6
CONTINUOUS
 10
72.46284
 20
21.33411
 30
 0
 11
72.46284
 21
20.19500
  0
LINE
  8
Gravur
 62
   7
 39
0.400
  6
CONTINUOUS
 10
72.46284
 20
20.19500
 30
 0
 11
72.46284
 21
21.33411
  0
ARC
  8
Gravur
 62
   7
 39
0.400
  6
CONTINUOUS
 10
73.03240
 20
21.33411
 30
 0
 40
0.56956
 50
0.00000
 51
180.00000
  0
LINE
  8
Gravur
 62
   7
 39
0.400
  6
CONTINUOUS
 10
73.60196
 20
21.33411
 30
 0
 11
73.60196
 21
20.19500
  0
LINE
  8
Gravur
 62
   7
 39
0.400
  6
CONTINUOUS
 10
74.28573
 20
21.90367
 30
 0
 11
74.28573
 21
20.90694
  0
ARC
  8
Gravur
 62
   7
 39
0.400
  6
CONTINUOUS
 10
74.99768
 20
20.90694
 30
 0
 40
0.71194
 50
180.00000
 51
360.00000
  0
LINE
  8
Gravur
 62
   7
 39
0.400
  6
CONTINUOUS
 10
75.70962
 20
20.90694
 30
 0
 11
75.70962
 21
20.19500
  0
LINE
  8
Gravur
 62
   7
 39
0.400
  6
CONTINUOUS
 10
75.70962
 20
20.19500
 30
 0
 11
75.70962
 21
21.90367
  0
LINE
  8
Gravur
 62
   7
 39
0.400
  6
CONTINUOUS
 10
76.64903
 20
22.75800
 30
 0
 11
76.64903
 21
21.90367
  0
LINE
  8
Gravur
 62
   7
 39
0.400
  6
CONTINUOUS
 10
76.64903
 20
21.90367
 30
 0
 11
77.07620
 21
21.90367
  0
LINE
  8
Gravur
 62
   7
 39
0.400
  6
CONTINUOUS
 10
77.07620
 20
21.90367
 30
 0
 11
76.36426
 21
21.90367
  0
LINE
  8
Gravur
 62
   7
 39
0.400
  6
CONTINUOUS
 10
76.36426
 20
21.90367
 30
 0
 11
76.64903
 21
21.90367
  0
LINE
  8
Gravur
 62
   7
 39
0.400
  6
CONTINUOUS
 10
76.64903
 20
21.90367
 30
 0
 11
76.64903
 21
20.53673
  0
ARC
  8
Gravur
 62
   7
 39
0.400
  6
CONTINUOUS
 10
76.99635
 20
20.53664
 30
 0
 40
0.34731
 50
179.98432
 51
259.62682
  0
LINE
  8
Gravur
 62
   7
 39
0.400
  6
CONTINUOUS
 10
77.75873
 20
21.04833
 30
 0
 11
79.18262
 21
21.04833
  0
LINE
  8
Gravur
 62
   7
 39
0.400
  6
CONTINUOUS
 10
79.18262
 20
21.04833
 30
 0
 11
79.18262
 21
21.19072
  0
ARC
  8
Gravur
 62
   7
 39
0.400
  6
CONTINUOUS
 10
78.47068
 20
21.19072
 30
 0
 40
0.71194
 50
0.00000
 51
180.00000
  0
LINE
  8
Gravur
 62
   7
 39
0.400
  6
CONTINUOUS
 10
77.75873
 20
21.19072
 30
 0
 11
77.75873
 21
20.90594
  0
ARC
  8
Gravur
 62
   7
 39
0.400
  6
CONTINUOUS
 10
78.50531
 20
20.90535
 30
 0
 40
0.74658
 50
179.95424
 51
322.44599
  0
ARC
  8
Gravur
 62
   7
 39
0.400
  6
CONTINUOUS
 10
48.48351
 20
21.14245
 30
 0
 40
0.96757
 50
228.05192
 51
293.02344
  0
ARC
  8
Gravur
 62
   7
 39
0.400
  6
CONTINUOUS
 10
48.71950
 20
20.58835
 30
 0
 40
0.36530
 50
292.94873
 51
431.82316
  0
LINE
  8
Gravur
 62
   7
 39
0.400
  6
CONTINUOUS
 10
48.83346
 20
20.93542
 30
 0
 11
48.06456
 21
21.19172
  0
ARC
  8
Gravur
 62
   7
 39
0.400
  6
CONTINUOUS
 10
48.16713
 20
21.50322
 30
 0
 40
0.32795
 50
119.10762
 51
251.77304
  0
ARC
  8
Gravur
 62
   7
 39
0.400
  6
CONTINUOUS
 10
48.50395
 20
20.91149
 30
 0
 40
1.00882
 50
54.50145
 51
119.47297
  0
LINE
  8
Gravur
 62
   7
 39
0.400
  6
CONTINUOUS
 10
50.03003
 20
22.75800
 30
 0
 11
50.03003
 21
21.90367
  0
LINE
  8
Gravur
 62
   7
 39
0.400
  6
CONTINUOUS
 10
50.03003
 20
21.90367
 30
 0
 11
50.45720
 21
21.90367
  0
LINE
  8
Gravur
 62
   7
 39
0.400
  6
CONTINUOUS
 10
50.45720
 20
21.90367
 30
 0
 11
49.74526
 21
21.90367
  0
LINE
  8
Gravur
 62
   7
 39
0.400
  6
CONTINUOUS
 10
49.74526
 20
21.90367
 30
 0
 11
50.03003
 21
21.90367
  0
LINE
  8
Gravur
 62
   7
 39
0.400
  6
CONTINUOUS
 10
50.03003
 20
21.90367
 30
 0
 11
50.03003
 21
20.53673
  0
ARC
  8
Gravur
 62
   7
 39
0.400
  6
CONTINUOUS
 10
50.37735
 20
20.53664
 30
 0
 40
0.34731
 50
179.98432
 51
259.62682
  0
LINE
  8
Gravur
 62
   7
 39
0.400
  6
CONTINUOUS
 10
51.14073
 20
20.90594
 30
 0
 11
51.14073
 21
21.19072
  0
ARC
  8
Gravur
 62
   7
 39
0.400
  6
CONTINUOUS
 10
51.85268
 20
21.19072
 30
 0
 40
0.71194
 50
0.00000
 51
180.00000
  0
LINE
  8
Gravur
 62
   7
 39
0.400
  6
CONTINUOUS
 10
52.56462
 20
21.19072
 30
 0
 11
52.56462
 21
20.90594
  0
ARC
  8
Gravur
 62
   7
 39
0.400
  6
CONTINUOUS
 10
51.85268
 20
20.90594
 30
 0
 40
0.71194
 50
-180.00000
 51
0.00000
  0
LINE
  8
Gravur
 62
   7
 39
0.400
  6
CONTINUOUS
 10
53.24773
 20
19.33867
 30
 0
 11
53.24773
 21
21.18972
  0
ARC
  8
Gravur
 62
   7
 39
0.400
  6
CONTINUOUS
 10
53.95968
 20
21.18972
 30
 0
 40
0.71194
 50
0.00000
 51
180.00000
  0
LINE
  8
Gravur
 62
   7
 39
0.400
  6
CONTINUOUS
 10
54.67162
 20
21.18972
 30
 0
 11
54.67162
 21
20.90494
  0
ARC
  8
Gravur
 62
   7
 39
0.400
  6
CONTINUOUS
 10
53.95968
 20
20.90494
 30
 0
 40
0.71194
 50
-180.00000
 51
0.00000
  0
LINE
  8
Gravur
 62
   7
 39
0.400
  6
CONTINUOUS
 10
53.24773
 20
20.90494
 30
 0
 11
53.24773
 21
21.90167
  0
LINE
  8
Gravur
 62
   7
 39
0.400
  6
CONTINUOUS
 10
9.10673
 20
105.75800
 30
 0
 11
9.10673
 21
105.61561
  0
LINE
  8
Gravur
 62
   7
 39
0.400
  6
CONTINUOUS
 10
9.10673
 20
104.90367
 30
 0
 11
9.10673
 21
103.19500
  0
LINE
  8
Gravur
 62
   7
 39
0.400
  6
CONTINUOUS
 10
9.79073
 20
103.19500
 30
 0
 11
9.79073
 21
104.90367
  0
LINE
  8
Gravur
 62
   7
 39
0.400
  6
CONTINUOUS
 10
9.79073
 20
104.90367
 30
 0
 11
9.79073
 21
104.19172
  0
ARC
  8
Gravur
 62
   7
 39
0.400
  6
CONTINUOUS
 10
10.50268
 20
104.19172
 30
 0
 40
0.71194
 50
0.00000
 51
180.00000
  0
LINE
  8
Gravur
 62
   7
 39
0.400
  6
CONTINUOUS
 10
11.21462
 20
104.19172
 30
 0
 11
11.21462
 21
103.19500
  0
ARC
  8
Gravur
 62
   7
 39
0.400
  6
CONTINUOUS
 10
21.86477
 20
118.69661
 30
 0
 40
0.70606
 50
42.74595
 51
180.39666
  0
LINE
  8
Gravur
 62
   7
 39
0.400
  6
CONTINUOUS
 10
21.15873
 20
118.69172
 30
 0
 11
21.15873
 21
118.40694
  0
ARC
  8
Gravur
 62
   7
 39
0.400
  6
CONTINUOUS
 10
21.86620
 20
118.40753
 30
 0
 40
0.70747
 50
180.04758
 51
328.39092
  0
LINE
  8
Gravur
 62
   7
 39
0.400
  6
CONTINUOUS
 10
23.15273
 20
120.25700
 30
 0
 11
23.15273
 21
118.03573
  0
ARC
  8
Gravur
 62
   7
 39
0.400
  6
CONTINUOUS
 10
23.50005
 20
118.03564
 30
 0
 40
0.34731
 50
179.98432
 51
259.62682
  0
LINE
  8
Gravur
 62
   7
 39
0.400
  6
CONTINUOUS
 10
24.12173
 20
118.40494
 30
 0
 11
24.12173
 21
118.68972
  0
ARC
  8
Gravur
 62
   7
 39
0.400
  6
CONTINUOUS
 10
24.83368
 20
118.68972
 30
 0
 40
0.71194
 50
0.00000
 51
180.00000
  0
LINE
  8
Gravur
 62
   7
 39
0.400
  6
CONTINUOUS
 10
25.54562
 20
118.68972
 30
 0
 11
25.54562
 21
118.40494
  0
ARC
  8
Gravur
 62
   7
 39
0.400
  6
CONTINUOUS
 10
24.83368
 20
118.40494
 30
 0
 40
0.71194
 50
-180.00000
 51
0.00000
  0
ARC
  8
Gravur
 62
   7
 39
0.400
  6
CONTINUOUS
 10
26.93477
 20
118.69361
 30
 0
 40
0.70606
 50
42.74595
 51
180.39666
  0
LINE
  8
Gravur
 62
   7
 39
0.400
  6
CONTINUOUS
 10
26.22873
 20
118.68872
 30
 0
 11
26.22873
 21
118.40394
  0
ARC
  8
Gravur
 62
   7
 39
0.400
  6
CONTINUOUS
 10
26.93620
 20
118.40453
 30
 0
 40
0.70747
 50
180.04758
 51
328.39092
  0
LINE
  8
Gravur
 62
   7
 39
0.400
  6
CONTINUOUS
 10
28.22173
 20
120.25400
 30
 0
 11
28.22173
 21
117.69100
  0
LINE
  8
Gravur
 62
   7
 39
0.400
  6
CONTINUOUS
 10
28.22173
 20
117.69100
 30
 0
 11
28.22173
 21
118.26056
  0
LINE
  8
Gravur
 62
   7
 39
0.400
  6
CONTINUOUS
 10
28.22173
 20
118.26056
 30
 0
 11
29.64562
 21
119.39967
  0
LINE
  8
Gravur
 62
   7
 39
0.400
  6
CONTINUOUS
 10
29.64562
 20
119.39967
 30
 0
 11
28.79129
 21
118.71620
  0
LINE
  8
Gravur
 62
   7
 39
0.400
  6
CONTINUOUS
 10
28.79129
 20
118.71620
 30
 0
 11
29.64562
 21
117.69100
  0
LINE
  8
Gravur
 62
   7
 39
0.400
  6
CONTINUOUS
 10
36.51173
 20
103.19500
 30
 0
 11
36.51173
 21
104.90367
  0
LINE
  8
Gravur
 62
   7
 39
0.400
  6
CONTINUOUS
 10
36.51173
 20
104.90367
 30
 0
 11
36.51173
 21
104.33411
  0
ARC
  8
Gravur
 62
   7
 39
0.400
  6
CONTINUOUS
 10
37.14104
 20
104.33413
 30
 0
 40
0.62931
 50
140.69073
 51
180.00162
  0
ARC
  8
Gravur
 62
   7
 39
0.400
  6
CONTINUOUS
 10
36.96738
 20
104.47527
 30
 0
 40
0.40553
 50
39.42406
 51
140.57594
  0
LINE
  8
Gravur
 62
   7
 39
0.400
  6
CONTINUOUS
 10
37.93573
 20
104.04933
 30
 0
 11
39.35962
 21
104.04933
  0
LINE
  8
Gravur
 62
   7
 39
0.400
  6
CONTINUOUS
 10
39.35962
 20
104.04933
 30
 0
 11
39.35962
 21
104.19172
  0
ARC
  8
Gravur
 62
   7
 39
0.400
  6
CONTINUOUS
 10
38.64768
 20
104.19172
 30
 0
 40
0.71194
 50
0.00000
 51
180.00000
  0
LINE
  8
Gravur
 62
   7
 39
0.400
  6
CONTINUOUS
 10
37.93573
 20
104.19172
 30
 0
 11
37.93573
 21
103.90694
  0
ARC
  8
Gravur
 62
   7
 39
0.400
  6
CONTINUOUS
 10
38.68231
 20
103.90635
 30
 0
 40
0.74658
 50
179.95424
 51
322.44599
  0
ARC
  8
Gravur
 62
   7
 39
0.400
  6
CONTINUOUS
 10
40.69051
 20
104.14245
 30
 0
 40
0.96757
 50
228.05192
 51
293.02344
  0
ARC
  8
Gravur
 62
   7
 39
0.400
  6
CONTINUOUS
 10
40.92650
 20
103.58835
 30
 0
 40
0.36530
 50
292.94873
 51
431.82316
  0
LINE
  8
Gravur
 62
   7
 39
0.400
  6
CONTINUOUS
 10
41.04046
 20
103.93542
 30
 0
 11
40.27156
 21
104.19172
  0
ARC
  8
Gravur
 62
   7
 39
0.400
  6
CONTINUOUS
 10
40.37413
 20
104.50322
 30
 0
 40
0.32795
 50
119.10762
 51
251.77304
  0
ARC
  8
Gravur
 62
   7
 39
0.400
  6
CONTINUOUS
 10
40.71095
 20
103.91149
 30
 0
 40
1.00882
 50
54.50145
 51
119.47297
  0
LINE
  8
Gravur
 62
   7
 39
0.400
  6
CONTINUOUS
 10
41.97973
 20
104.04933
 30
 0
 11
43.40362
 21
104.04933
  0
LINE
  8
Gravur
 62
   7
 39
0.400
  6
CONTINUOUS
 10
43.40362
 20
104.04933
 30
 0
 11
43.40362
 21
104.19172
  0
ARC
  8
Gravur
 62
   7
 39
0.400
  6
CONTINUOUS
 10
42.69168
 20
104.19172
 30
 0
 40
0.71194
 50
0.00000
 51
180.00000
  0
LINE
  8
Gravur
 62
   7
 39
0.400
  6
CONTINUOUS
 10
41.97973
 20
104.19172
 30
 0
 11
41.97973
 21
103.90694
  0
ARC
  8
Gravur
 62
   7
 39
0.400
  6
CONTINUOUS
 10
42.72631
 20
103.90635
 30
 0
 40
0.74658
 50
179.95424
 51
322.44599
  0
LINE
  8
Gravur
 62
   7
 39
0.400
  6
CONTINUOUS
 10
44.34303
 20
105.75800
 30
 0
 11
44.34303
 21
104.90367
  0
LINE
  8
Gravur
 62
   7
 39
0.400
  6
CONTINUOUS
 10
44.34303
 20
104.90367
 30
 0
 11
44.77020
 21
104.90367
  0
LINE
  8
Gravur
 62
   7
 39
0.400
  6
CONTINUOUS
 10
44.77020
 20
104.90367
 30
 0
 11
44.05826
 21
104.90367
  0
LINE
  8
Gravur
 62
   7
 39
0.400
  6
CONTINUOUS
 10
44.05826
 20
104.90367
 30
 0
 11
44.34303
 21
104.90367
  0
LINE
  8
Gravur
 62
   7
 39
0.400
  6
CONTINUOUS
 10
44.34303
 20
104.90367
 30
 0
 11
44.34303
 21
103.53673
  0
ARC
  8
Gravur
 62
   7
 39
0.400
  6
CONTINUOUS
 10
44.69035
 20
103.53664
 30
 0
 40
0.34731
 50
179.98432
 51
259.62682
  0
LINE
  8
Gravur
 62
   7
 39
0.400
  6
CONTINUOUS
 10
22.95173
 20
103.90694
 30
 0
 11
22.95173
 21
104.19172
  0
ARC
  8
Gravur
 62
   7
 39
0.400
  6
CONTINUOUS
 10
23.66368
 20
104.19172
 30
 0
 40
0.71194
 50
0.00000
 51
180.00000
  0
LINE
  8
Gravur
 62
   7
 39
0.400
  6
CONTINUOUS
 10
24.37562
 20
104.19172
 30
 0
 11
24.37562
 21
103.90694
  0
ARC
  8
Gravur
 62
   7
 39
0.400
  6
CONTINUOUS
 10
23.66368
 20
103.90694
 30
 0
 40
0.71194
 50
-180.00000
 51
0.00000
  0
LINE
  8
Gravur
 62
   7
 39
0.400
  6
CONTINUOUS
 10
25.05973
 20
104.90267
 30
 0
 11
25.05973
 21
103.90594
  0
ARC
  8
Gravur
 62
   7
 39
0.400
  6
CONTINUOUS
 10
25.77168
 20
103.90594
 30
 0
 40
0.71194
 50
180.00000
 51
360.00000
  0
LINE
  8
Gravur
 62
   7
 39
0.400
  6
CONTINUOUS
 10
26.48362
 20
103.90594
 30
 0
 11
26.48362
 21
103.19400
  0
LINE
  8
Gravur
 62
   7
 39
0.400
  6
CONTINUOUS
 10
26.48362
 20
103.19400
 30
 0
 11
26.48362
 21
104.90267
  0
LINE
  8
Gravur
 62
   7
 39
0.400
  6
CONTINUOUS
 10
27.42303
 20
105.75700
 30
 0
 11
27.42303
 21
104.90267
  0
LINE
  8
Gravur
 62
   7
 39
0.400
  6
CONTINUOUS
 10
27.42303
 20
104.90267
 30
 0
 11
27.85020
 21
104.90267
  0
LINE
  8
Gravur
 62
   7
 39
0.400
  6
CONTINUOUS
 10
27.85020
 20
104.90267
 30
 0
 11
27.13826
 21
104.90267
  0
LINE
  8
Gravur
 62
   7
 39
0.400
  6
CONTINUOUS
 10
27.13826
 20
104.90267
 30
 0
 11
27.42303
 21
104.90267
  0
LINE
  8
Gravur
 62
   7
 39
0.400
  6
CONTINUOUS
 10
27.42303
 20
104.90267
 30
 0
 11
27.42303
 21
103.53573
  0
ARC
  8
Gravur
 62
   7
 39
0.400
  6
CONTINUOUS
 10
27.77035
 20
103.53564
 30
 0
 40
0.34731
 50
179.98432
 51
259.62682
  0
LINE
  8
Gravur
 62
   7
 39
0.400
  6
CONTINUOUS
 10
83.44558
 20
104.90367
 30
 0
 11
83.44558
 21
103.90694
  0
ARC
  8
Gravur
 62
   7
 39
0.400
  6
CONTINUOUS
 10
82.70516
 20
103.90694
 30
 0
 40
0.74042
 50
-180.00000
 51
0.00000
  0
LINE
  8
Gravur
 62
   7
 39
0.400
  6
CONTINUOUS
 10
81.96473
 20
103.90694
 30
 0
 11
81.96473
 21
104.19172
  0
ARC
  8
Gravur
 62
   7
 39
0.400
  6
CONTINUOUS
 10
82.70516
 20
104.19172
 30
 0
 40
0.74042
 50
0.00000
 51
180.00000
  0
LINE
  8
Gravur
 62
   7
 39
0.400
  6
CONTINUOUS
 10
83.44558
 20
104.19172
 30
 0
 11
83.44558
 21
103.50826
  0
ARC
  8
Gravur
 62
   7
 39
0.400
  6
CONTINUOUS
 10
83.85846
 20
103.54655
 30
 0
 40
0.41466
 50
185.29897
 51
260.11981
  0
LINE
  8
Gravur
 62
   7
 39
0.400
  6
CONTINUOUS
 10
84.47173
 20
104.90367
 30
 0
 11
84.47173
 21
103.90694
  0
ARC
  8
Gravur
 62
   7
 39
0.400
  6
CONTINUOUS
 10
85.18368
 20
103.90694
 30
 0
 40
0.71194
 50
180.00000
 51
360.00000
  0
LINE
  8
Gravur
 62
   7
 39
0.400
  6
CONTINUOUS
 10
85.89562
 20
103.90694
 30
 0
 11
85.89562
 21
103.19500
  0
LINE
  8
Gravur
 62
   7
 39
0.400
  6
CONTINUOUS
 10
85.89562
 20
103.19500
 30
 0
 11
85.89562
 21
104.90367
  0
LINE
  8
Gravur
 62
   7
 39
0.400
  6
CONTINUOUS
 10
88.00362
 20
105.75800
 30
 0
 11
88.00362
 21
103.90694
  0
ARC
  8
Gravur
 62
   7
 39
0.400
  6
CONTINUOUS
 10
87.29168
 20
103.87847
 30
 0
 40
0.71251
 50
-177.70939
 51
2.29061
  0
LINE
  8
Gravur
 62
   7
 39
0.400
  6
CONTINUOUS
 10
86.57973
 20
103.84999
 30
 0
 11
86.57973
 21
104.19172
  0
ARC
  8
Gravur
 62
   7
 39
0.400
  6
CONTINUOUS
 10
87.29168
 20
104.19172
 30
 0
 40
0.71194
 50
0.00000
 51
180.00000
  0
LINE
  8
Gravur
 62
   7
 39
0.400
  6
CONTINUOUS
 10
88.00362
 20
104.19172
 30
 0
 11
88.00362
 21
103.19500
  0
LINE
  8
Gravur
 62
   7
 39
0.400
  6
CONTINUOUS
 10
88.68773
 20
105.75800
 30
 0
 11
88.68773
 21
105.61561
  0
LINE
  8
Gravur
 62
   7
 39
0.400
  6
CONTINUOUS
 10
88.68773
 20
104.90367
 30
 0
 11
88.68773
 21
103.19500
  0
LINE
  8
Gravur
 62
   7
 39
0.400
  6
CONTINUOUS
 10
89.37173
 20
103.90694
 30
 0
 11
89.37173
 21
104.19172
  0
ARC
  8
Gravur
 62
   7
 39
0.400
  6
CONTINUOUS
 10
90.08368
 20
104.19172
 30
 0
 40
0.71194
 50
0.00000
 51
180.00000
  0
LINE
  8
Gravur
 62
   7
 39
0.400
  6
CONTINUOUS
 10
90.79562
 20
104.19172
 30
 0
 11
90.79562
 21
103.90694
  0
ARC
  8
Gravur
 62
   7
 39
0.400
  6
CONTINUOUS
 10
90.08368
 20
103.90694
 30
 0
 40
0.71194
 50
-180.00000
 51
0.00000
  0
LINE
  8
Gravur
 62
   7
 39
0.400
  6
CONTINUOUS
 10
93.30073
 20
103.90594
 30
 0
 11
93.30073
 21
104.19072
  0
ARC
  8
Gravur
 62
   7
 39
0.400
  6
CONTINUOUS
 10
94.01268
 20
104.19072
 30
 0
 40
0.71194
 50
0.00000
 51
180.00000
  0
LINE
  8
Gravur
 62
   7
 39
0.400
  6
CONTINUOUS
 10
94.72462
 20
104.19072
 30
 0
 11
94.72462
 21
103.90594
  0
ARC
  8
Gravur
 62
   7
 39
0.400
  6
CONTINUOUS
 10
94.01268
 20
103.90594
 30
 0
 40
0.71194
 50
-180.00000
 51
0.00000
  0
LINE
  8
Gravur
 62
   7
 39
0.400
  6
CONTINUOUS
 10
95.40773
 20
104.90167
 30
 0
 11
95.40773
 21
103.90494
  0
ARC
  8
Gravur
 62
   7
 39
0.400
  6
CONTINUOUS
 10
96.11968
 20
103.90494
 30
 0
 40
0.71194
 50
180.00000
 51
360.00000
  0
LINE
  8
Gravur
 62
   7
 39
0.400
  6
CONTINUOUS
 10
96.83162
 20
103.90494
 30
 0
 11
96.83162
 21
103.19300
  0
LINE
  8
Gravur
 62
   7
 39
0.400
  6
CONTINUOUS
 10
96.83162
 20
103.19300
 30
 0
 11
96.83162
 21
104.90167
  0
LINE
  8
Gravur
 62
   7
 39
0.400
  6
CONTINUOUS
 10
97.77103
 20
105.75600
 30
 0
 11
97.77103
 21
104.90167
  0
LINE
  8
Gravur
 62
   7
 39
0.400
  6
CONTINUOUS
 10
97.77103
 20
104.90167
 30
 0
 11
98.19820
 21
104.90167
  0
LINE
  8
Gravur
 62
   7
 39
0.400
  6
CONTINUOUS
 10
98.19820
 20
104.90167
 30
 0
 11
97.48626
 21
104.90167
  0
LINE
  8
Gravur
 62
   7
 39
0.400
  6
CONTINUOUS
 10
97.48626
 20
104.90167
 30
 0
 11
97.77103
 21
104.90167
  0
LINE
  8
Gravur
 62
   7
 39
0.400
  6
CONTINUOUS
 10
97.77103
 20
104.90167
 30
 0
 11
97.77103
 21
103.53473
  0
ARC
  8
Gravur
 62
   7
 39
0.400
  6
CONTINUOUS
 10
98.11835
 20
103.53464
 30
 0
 40
0.34731
 50
179.98432
 51
259.62682
  0
LINE
  8
Gravur
 62
   7
 39
0.400
  6
CONTINUOUS
 10
57.67273
 20
100.19500
 30
 0
 11
57.67273
 21
102.75800
  0
LINE
  8
Gravur
 62
   7
 39
0.400
  6
CONTINUOUS
 10
57.67273
 20
102.75800
 30
 0
 11
58.66946
 21
100.90694
  0
LINE
  8
Gravur
 62
   7
 39
0.400
  6
CONTINUOUS
 10
58.66946
 20
100.90694
 30
 0
 11
59.66618
 21
102.75800
  0
LINE
  8
Gravur
 62
   7
 39
0.400
  6
CONTINUOUS
 10
59.66618
 20
102.75800
 30
 0
 11
59.66618
 21
100.19500
  0
LINE
  8
Gravur
 62
   7
 39
0.400
  6
CONTINUOUS
 10
60.34973
 20
102.75800
 30
 0
 11
60.34973
 21
100.19500
  0
LINE
  8
Gravur
 62
   7
 39
0.400
  6
CONTINUOUS
 10
61.03373
 20
102.75800
 30
 0
 11
61.91654
 21
102.75800
  0
ARC
  8
Gravur
 62
   7
 39
0.400
  6
CONTINUOUS
 10
61.88338
 20
101.89961
 30
 0
 40
0.85903
 50
0.27068
 51
87.78728
  0
LINE
  8
Gravur
 62
   7
 39
0.400
  6
CONTINUOUS
 10
62.74240
 20
101.90367
 30
 0
 11
62.74240
 21
101.04933
  0
ARC
  8
Gravur
 62
   7
 39
0.400
  6
CONTINUOUS
 10
61.91797
 20
101.01995
 30
 0
 40
0.82495
 50
-90.09907
 51
2.04111
  0
LINE
  8
Gravur
 62
   7
 39
0.400
  6
CONTINUOUS
 10
61.91654
 20
100.19500
 30
 0
 11
61.03373
 21
100.19500
  0
LINE
  8
Gravur
 62
   7
 39
0.400
  6
CONTINUOUS
 10
61.03373
 20
100.19500
 30
 0
 11
61.03373
 21
102.75800
  0
LINE
  8
Gravur
 62
   7
 39
0.400
  6
CONTINUOUS
 10
63.42673
 20
102.75700
 30
 0
 11
63.42673
 21
100.19400
  0
LINE
  8
Gravur
 62
   7
 39
0.400
  6
CONTINUOUS
 10
65.93273
 20
100.90594
 30
 0
 11
65.93273
 21
101.19072
  0
ARC
  8
Gravur
 62
   7
 39
0.400
  6
CONTINUOUS
 10
66.64468
 20
101.19072
 30
 0
 40
0.71194
 50
0.00000
 51
180.00000
  0
LINE
  8
Gravur
 62
   7
 39
0.400
  6
CONTINUOUS
 10
67.35662
 20
101.19072
 30
 0
 11
67.35662
 21
100.90594
  0
ARC
  8
Gravur
 62
   7
 39
0.400
  6
CONTINUOUS
 10
66.64468
 20
100.90594
 30
 0
 40
0.71194
 50
-180.00000
 51
0.00000
  0
LINE
  8
Gravur
 62
   7
 39
0.400
  6
CONTINUOUS
 10
68.03973
 20
101.90167
 30
 0
 11
68.03973
 21
100.90494
  0
ARC
  8
Gravur
 62
   7
 39
0.400
  6
CONTINUOUS
 10
68.75168
 20
100.90494
 30
 0
 40
0.71194
 50
180.00000
 51
360.00000
  0
LINE
  8
Gravur
 62
   7
 39
0.400
  6
CONTINUOUS
 10
69.46362
 20
100.90494
 30
 0
 11
69.46362
 21
100.19300
  0
LINE
  8
Gravur
 62
   7
 39
0.400
  6
CONTINUOUS
 10
69.46362
 20
100.19300
 30
 0
 11
69.46362
 21
101.90167
  0
LINE
  8
Gravur
 62
   7
 39
0.400
  6
CONTINUOUS
 10
70.40303
 20
102.75600
 30
 0
 11
70.40303
 21
101.90167
  0
LINE
  8
Gravur
 62
   7
 39
0.400
  6
CONTINUOUS
 10
70.40303
 20
101.90167
 30
 0
 11
70.83020
 21
101.90167
  0
LINE
  8
Gravur
 62
   7
 39
0.400
  6
CONTINUOUS
 10
70.83020
 20
101.90167
 30
 0
 11
70.11826
 21
101.90167
  0
LINE
  8
Gravur
 62
   7
 39
0.400
  6
CONTINUOUS
 10
70.11826
 20
101.90167
 30
 0
 11
70.40303
 21
101.90167
  0
LINE
  8
Gravur
 62
   7
 39
0.400
  6
CONTINUOUS
 10
70.40303
 20
101.90167
 30
 0
 11
70.40303
 21
100.53473
  0
ARC
  8
Gravur
 62
   7
 39
0.400
  6
CONTINUOUS
 10
70.75035
 20
100.53464
 30
 0
 40
0.34731
 50
179.98432
 51
259.62682
  0
CIRCLE
  8
Kontur
 62
   7
 39
0.100
  6
CONTINUOUS
 10
90.83000
 20
21.99500
 30
 0
 40
3.75000
  0
CIRCLE
  8
Kontur
 62
   7
 39
0.100
  6
CONTINUOUS
 10
4.00000
 20
36.59500
 30
 0
 40
1.75000
  0
CIRCLE
  8
Kontur
 62
   7
 39
0.100
  6
CONTINUOUS
 10
36.00000
 20
36.59500
 30
 0
 40
1.75000
  0
CIRCLE
  8
Kontur
 62
   7
 39
0.100
  6
CONTINUOUS
 10
20.00000
 20
21.99500
 30
 0
 40
10.50000
  0
CIRCLE
  8
Kontur
 62
   7
 39
0.100
  6
CONTINUOUS
 10
4.00000
 20
10.59500
 30
 0
 40
1.75000
  0
CIRCLE
  8
Kontur
 62
   7
 39
0.100
  6
CONTINUOUS
 10
36.00000
 20
10.59500
 30
 0
 40
1.75000
  0
CIRCLE
  8
Kontur
 62
   7
 39
0.100
  6
CONTINUOUS
 10
7.50000
 20
125.39500
 30
 0
 40
1.60000
  0
CIRCLE
  8
Kontur
 62
   7
 39
0.100
  6
CONTINUOUS
 10
7.50000
 20
3.00000
 30
 0
 40
1.60000
  0
CIRCLE
  8
Kontur
 62
   7
 39
0.100
  6
CONTINUOUS
 10
93.76000
 20
125.39000
 30
 0
 40
1.60000
  0
CIRCLE
  8
Kontur
 62
   7
 39
0.100
  6
CONTINUOUS
 10
93.76000
 20
3.00000
 30
 0
 40
1.60000
  0
CIRCLE
  8
Kontur
 62
   7
 39
0.100
  6
CONTINUOUS
 10
63.25300
 20
28.99500
 30
 0
 40
3.50000
  0
CIRCLE
  8
Kontur
 62
   7
 39
0.100
  6
CONTINUOUS
 10
75.25300
 20
28.99500
 30
 0
 40
3.50000
  0
CIRCLE
  8
Kontur
 62
   7
 39
0.100
  6
CONTINUOUS
 10
51.25300
 20
28.99500
 30
 0
 40
3.50000
  0
CIRCLE
  8
Kontur
 62
   7
 39
0.100
  6
CONTINUOUS
 10
10.16000
 20
112.64500
 30
 0
 40
3.25000
  0
CIRCLE
  8
Kontur
 62
   7
 39
0.100
  6
CONTINUOUS
 10
25.40000
 20
112.64500
 30
 0
 40
3.25000
  0
CIRCLE
  8
Kontur
 62
   7
 39
0.100
  6
CONTINUOUS
 10
40.64000
 20
112.64500
 30
 0
 40
3.25000
  0
CIRCLE
  8
Kontur
 62
   7
 39
0.100
  6
CONTINUOUS
 10
90.08000
 20
112.64500
 30
 0
 40
3.25000
  0
CIRCLE
  8
Kontur
 62
   7
 39
0.100
  6
CONTINUOUS
 10
52.75000
 20
112.64500
 30
 0
 40
1.75000
  0
CIRCLE
  8
Kontur
 62
   7
 39
0.100
  6
CONTINUOUS
 10
64.25000
 20
112.64500
 30
 0
 40
7.75000
  0
CIRCLE
  8
Kontur
 62
   7
 39
0.100
  6
CONTINUOUS
 10
75.75000
 20
112.64500
 30
 0
 40
1.75000
  0
CIRCLE
  8
Kontur
 62
   7
 39
0.100
  6
CONTINUOUS
 10
97.74900
 20
97.74500
 30
 0
 40
1.75000
  0
CIRCLE
  8
Kontur
 62
   7
 39
0.100
  6
CONTINUOUS
 10
3.74900
 20
97.74500
 30
 0
 40
1.75000
  0
ARC
  8
Kontur
 62
   7
 39
0.100
  6
CONTINUOUS
 10
2.35255
 20
50.34855
 30
 0
 40
0.50000
 50
135.00000
 51
315.00000
  0
LINE
  8
Kontur
 62
   7
 39
0.100
  6
CONTINUOUS
 10
2.70611
 20
49.99500
 30
 0
 11
98.79189
 21
49.99500
  0
ARC
  8
Kontur
 62
   7
 39
0.100
  6
CONTINUOUS
 10
99.14545
 20
50.34855
 30
 0
 40
0.50000
 50
225.00000
 51
405.00000
  0
LINE
  8
Kontur
 62
   7
 39
0.100
  6
CONTINUOUS
 10
99.49900
 20
50.70211
 30
 0
 11
99.49900
 21
89.28789
  0
ARC
  8
Kontur
 62
   7
 39
0.100
  6
CONTINUOUS
 10
99.14545
 20
89.64145
 30
 0
 40
0.50000
 50
315.00000
 51
495.00000
  0
LINE
  8
Kontur
 62
   7
 39
0.100
  6
CONTINUOUS
 10
98.79189
 20
89.99500
 30
 0
 11
2.70611
 21
89.99500
  0
ARC
  8
Kontur
 62
   7
 39
0.100
  6
CONTINUOUS
 10
2.35255
 20
89.64145
 30
 0
 40
0.50000
 50
45.00000
 51
225.00000
  0
LINE
  8
Kontur
 62
   7
 39
0.100
  6
CONTINUOUS
 10
1.99900
 20
89.28789
 30
 0
 11
1.99900
 21
50.70211
  0
CIRCLE
  8
Kontur
 62
   7
 39
0.100
  6
CONTINUOUS
 10
3.74900
 20
42.24500
 30
 0
 40
1.75000
  0
CIRCLE
  8
Kontur
 62
   7
 39
0.100
  6
CONTINUOUS
 10
97.74900
 20
42.24500
 30
 0
 40
1.75000
  0
LINE
  8
Bezugspunkte
 62
   1
 39
0.100
  6
CONTINUOUS
 10
-0.71300
 20
0.00000
 30
 0
 11
0.71300
 21
0.00000
  0
LINE
  8
Bezugspunkte
 62
   1
 39
0.100
  6
CONTINUOUS
 10
0.00000
 20
-0.71300
 30
 0
 11
0.00000
 21
0.71300
  0
LINE
  8
Bezugspunkte
 62
   1
 39
0.100
  6
CONTINUOUS
 10
90.11700
 20
21.99500
 30
 0
 11
91.54300
 21
21.99500
  0
LINE
  8
Bezugspunkte
 62
   1
 39
0.100
  6
CONTINUOUS
 10
90.83000
 20
21.28200
 30
 0
 11
90.83000
 21
22.70800
  0
LINE
  8
Bezugspunkte
 62
   1
 39
0.100
  6
CONTINUOUS
 10
50.03700
 20
69.99500
 30
 0
 11
51.46300
 21
69.99500
  0
LINE
  8
Bezugspunkte
 62
   1
 39
0.100
  6
CONTINUOUS
 10
50.75000
 20
69.28200
 30
 0
 11
50.75000
 21
70.70800
  0
LINE
  8
Bezugspunkte
 62
   1
 39
0.100
  6
CONTINUOUS
 10
3.28700
 20
36.59500
 30
 0
 11
4.71300
 21
36.59500
  0
LINE
  8
Bezugspunkte
 62
   1
 39
0.100
  6
CONTINUOUS
 10
4.00000
 20
35.88200
 30
 0
 11
4.00000
 21
37.30800
  0
LINE
  8
Bezugspunkte
 62
   1
 39
0.100
  6
CONTINUOUS
 10
35.28700
 20
36.59500
 30
 0
 11
36.71300
 21
36.59500
  0
LINE
  8
Bezugspunkte
 62
   1
 39
0.100
  6
CONTINUOUS
 10
36.00000
 20
35.88200
 30
 0
 11
36.00000
 21
37.30800
  0
LINE
  8
Bezugspunkte
 62
   1
 39
0.100
  6
CONTINUOUS
 10
19.28700
 20
21.99500
 30
 0
 11
20.71300
 21
21.99500
  0
LINE
  8
Bezugspunkte
 62
   1
 39
0.100
  6
CONTINUOUS
 10
20.00000
 20
21.28200
 30
 0
 11
20.00000
 21
22.70800
  0
LINE
  8
Bezugspunkte
 62
   1
 39
0.100
  6
CONTINUOUS
 10
3.28700
 20
10.59500
 30
 0
 11
4.71300
 21
10.59500
  0
LINE
  8
Bezugspunkte
 62
   1
 39
0.100
  6
CONTINUOUS
 10
4.00000
 20
9.88200
 30
 0
 11
4.00000
 21
11.30800
  0
LINE
  8
Bezugspunkte
 62
   1
 39
0.100
  6
CONTINUOUS
 10
35.28700
 20
10.59500
 30
 0
 11
36.71300
 21
10.59500
  0
LINE
  8
Bezugspunkte
 62
   1
 39
0.100
  6
CONTINUOUS
 10
36.00000
 20
9.88200
 30
 0
 11
36.00000
 21
11.30800
  0
LINE
  8
Bezugspunkte
 62
   1
 39
0.100
  6
CONTINUOUS
 10
6.78700
 20
125.39500
 30
 0
 11
8.21300
 21
125.39500
  0
LINE
  8
Bezugspunkte
 62
   1
 39
0.100
  6
CONTINUOUS
 10
7.50000
 20
124.68200
 30
 0
 11
7.50000
 21
126.10800
  0
LINE
  8
Bezugspunkte
 62
   1
 39
0.100
  6
CONTINUOUS
 10
6.78700
 20
3.00000
 30
 0
 11
8.21300
 21
3.00000
  0
LINE
  8
Bezugspunkte
 62
   1
 39
0.100
  6
CONTINUOUS
 10
7.50000
 20
2.28700
 30
 0
 11
7.50000
 21
3.71300
  0
LINE
  8
Bezugspunkte
 62
   1
 39
0.100
  6
CONTINUOUS
 10
50.03700
 20
125.39500
 30
 0
 11
51.46300
 21
125.39500
  0
LINE
  8
Bezugspunkte
 62
   1
 39
0.100
  6
CONTINUOUS
 10
50.75000
 20
124.68200
 30
 0
 11
50.75000
 21
126.10800
  0
LINE
  8
Bezugspunkte
 62
   1
 39
0.100
  6
CONTINUOUS
 10
50.03700
 20
2.99500
 30
 0
 11
51.46300
 21
2.99500
  0
LINE
  8
Bezugspunkte
 62
   1
 39
0.100
  6
CONTINUOUS
 10
50.75000
 20
2.28200
 30
 0
 11
50.75000
 21
3.70800
  0
LINE
  8
Bezugspunkte
 62
   1
 39
0.100
  6
CONTINUOUS
 10
50.03700
 20
122.99500
 30
 0
 11
51.46300
 21
122.99500
  0
LINE
  8
Bezugspunkte
 62
   1
 39
0.100
  6
CONTINUOUS
 10
50.75000
 20
122.28200
 30
 0
 11
50.75000
 21
123.70800
  0
LINE
  8
Bezugspunkte
 62
   1
 39
0.100
  6
CONTINUOUS
 10
93.04700
 20
125.39000
 30
 0
 11
94.47300
 21
125.39000
  0
LINE
  8
Bezugspunkte
 62
   1
 39
0.100
  6
CONTINUOUS
 10
93.76000
 20
124.67700
 30
 0
 11
93.76000
 21
126.10300
  0
LINE
  8
Bezugspunkte
 62
   1
 39
0.100
  6
CONTINUOUS
 10
93.04700
 20
3.00000
 30
 0
 11
94.47300
 21
3.00000
  0
LINE
  8
Bezugspunkte
 62
   1
 39
0.100
  6
CONTINUOUS
 10
93.76000
 20
2.28700
 30
 0
 11
93.76000
 21
3.71300
  0
LINE
  8
Bezugspunkte
 62
   1
 39
0.100
  6
CONTINUOUS
 10
62.54000
 20
28.99500
 30
 0
 11
63.96600
 21
28.99500
  0
LINE
  8
Bezugspunkte
 62
   1
 39
0.100
  6
CONTINUOUS
 10
63.25300
 20
28.28200
 30
 0
 11
63.25300
 21
29.70800
  0
LINE
  8
Bezugspunkte
 62
   1
 39
0.100
  6
CONTINUOUS
 10
62.54000
 20
19.99500
 30
 0
 11
63.96600
 21
19.99500
  0
LINE
  8
Bezugspunkte
 62
   1
 39
0.100
  6
CONTINUOUS
 10
63.25300
 20
19.28200
 30
 0
 11
63.25300
 21
20.70800
  0
LINE
  8
Bezugspunkte
 62
   1
 39
0.100
  6
CONTINUOUS
 10
74.54000
 20
28.99500
 30
 0
 11
75.96600
 21
28.99500
  0
LINE
  8
Bezugspunkte
 62
   1
 39
0.100
  6
CONTINUOUS
 10
75.25300
 20
28.28200
 30
 0
 11
75.25300
 21
29.70800
  0
LINE
  8
Bezugspunkte
 62
   1
 39
0.100
  6
CONTINUOUS
 10
74.54000
 20
19.99500
 30
 0
 11
75.96600
 21
19.99500
  0
LINE
  8
Bezugspunkte
 62
   1
 39
0.100
  6
CONTINUOUS
 10
75.25300
 20
19.28200
 30
 0
 11
75.25300
 21
20.70800
  0
LINE
  8
Bezugspunkte
 62
   1
 39
0.100
  6
CONTINUOUS
 10
50.54000
 20
28.99500
 30
 0
 11
51.96600
 21
28.99500
  0
LINE
  8
Bezugspunkte
 62
   1
 39
0.100
  6
CONTINUOUS
 10
51.25300
 20
28.28200
 30
 0
 11
51.25300
 21
29.70800
  0
LINE
  8
Bezugspunkte
 62
   1
 39
0.100
  6
CONTINUOUS
 10
50.54000
 20
19.99500
 30
 0
 11
51.96600
 21
19.99500
  0
LINE
  8
Bezugspunkte
 62
   1
 39
0.100
  6
CONTINUOUS
 10
51.25300
 20
19.28200
 30
 0
 11
51.25300
 21
20.70800
  0
LINE
  8
Bezugspunkte
 62
   1
 39
0.100
  6
CONTINUOUS
 10
9.44700
 20
112.64500
 30
 0
 11
10.87300
 21
112.64500
  0
LINE
  8
Bezugspunkte
 62
   1
 39
0.100
  6
CONTINUOUS
 10
10.16000
 20
111.93200
 30
 0
 11
10.16000
 21
113.35800
  0
LINE
  8
Bezugspunkte
 62
   1
 39
0.100
  6
CONTINUOUS
 10
9.44700
 20
102.99500
 30
 0
 11
10.87300
 21
102.99500
  0
LINE
  8
Bezugspunkte
 62
   1
 39
0.100
  6
CONTINUOUS
 10
10.16000
 20
102.28200
 30
 0
 11
10.16000
 21
103.70800
  0
LINE
  8
Bezugspunkte
 62
   1
 39
0.100
  6
CONTINUOUS
 10
24.68700
 20
112.64500
 30
 0
 11
26.11300
 21
112.64500
  0
LINE
  8
Bezugspunkte
 62
   1
 39
0.100
  6
CONTINUOUS
 10
25.40000
 20
111.93200
 30
 0
 11
25.40000
 21
113.35800
  0
LINE
  8
Bezugspunkte
 62
   1
 39
0.100
  6
CONTINUOUS
 10
24.68700
 20
117.49500
 30
 0
 11
26.11300
 21
117.49500
  0
LINE
  8
Bezugspunkte
 62
   1
 39
0.100
  6
CONTINUOUS
 10
25.40000
 20
116.78200
 30
 0
 11
25.40000
 21
118.20800
  0
LINE
  8
Bezugspunkte
 62
   1
 39
0.100
  6
CONTINUOUS
 10
39.92700
 20
112.64500
 30
 0
 11
41.35300
 21
112.64500
  0
LINE
  8
Bezugspunkte
 62
   1
 39
0.100
  6
CONTINUOUS
 10
40.64000
 20
111.93200
 30
 0
 11
40.64000
 21
113.35800
  0
LINE
  8
Bezugspunkte
 62
   1
 39
0.100
  6
CONTINUOUS
 10
39.92700
 20
102.99500
 30
 0
 11
41.35300
 21
102.99500
  0
LINE
  8
Bezugspunkte
 62
   1
 39
0.100
  6
CONTINUOUS
 10
40.64000
 20
102.28200
 30
 0
 11
40.64000
 21
103.70800
  0
LINE
  8
Bezugspunkte
 62
   1
 39
0.100
  6
CONTINUOUS
 10
24.68700
 20
102.99500
 30
 0
 11
26.11300
 21
102.99500
  0
LINE
  8
Bezugspunkte
 62
   1
 39
0.100
  6
CONTINUOUS
 10
25.40000
 20
102.28200
 30
 0
 11
25.40000
 21
103.70800
  0
LINE
  8
Bezugspunkte
 62
   1
 39
0.100
  6
CONTINUOUS
 10
89.36700
 20
102.99500
 30
 0
 11
90.79300
 21
102.99500
  0
LINE
  8
Bezugspunkte
 62
   1
 39
0.100
  6
CONTINUOUS
 10
90.08000
 20
102.28200
 30
 0
 11
90.08000
 21
103.70800
  0
LINE
  8
Bezugspunkte
 62
   1
 39
0.100
  6
CONTINUOUS
 10
89.36700
 20
112.64500
 30
 0
 11
90.79300
 21
112.64500
  0
LINE
  8
Bezugspunkte
 62
   1
 39
0.100
  6
CONTINUOUS
 10
90.08000
 20
111.93200
 30
 0
 11
90.08000
 21
113.35800
  0
LINE
  8
Bezugspunkte
 62
   1
 39
0.100
  6
CONTINUOUS
 10
63.53700
 20
99.99500
 30
 0
 11
64.96300
 21
99.99500
  0
LINE
  8
Bezugspunkte
 62
   1
 39
0.100
  6
CONTINUOUS
 10
64.25000
 20
99.28200
 30
 0
 11
64.25000
 21
100.70800
  0
LINE
  8
Bezugspunkte
 62
   1
 39
0.100
  6
CONTINUOUS
 10
52.03700
 20
112.64500
 30
 0
 11
53.46300
 21
112.64500
  0
LINE
  8
Bezugspunkte
 62
   1
 39
0.100
  6
CONTINUOUS
 10
52.75000
 20
111.93200
 30
 0
 11
52.75000
 21
113.35800
  0
LINE
  8
Bezugspunkte
 62
   1
 39
0.100
  6
CONTINUOUS
 10
63.53700
 20
112.64500
 30
 0
 11
64.96300
 21
112.64500
  0
LINE
  8
Bezugspunkte
 62
   1
 39
0.100
  6
CONTINUOUS
 10
64.25000
 20
111.93200
 30
 0
 11
64.25000
 21
113.35800
  0
LINE
  8
Bezugspunkte
 62
   1
 39
0.100
  6
CONTINUOUS
 10
75.03700
 20
112.64500
 30
 0
 11
76.46300
 21
112.64500
  0
LINE
  8
Bezugspunkte
 62
   1
 39
0.100
  6
CONTINUOUS
 10
75.75000
 20
111.93200
 30
 0
 11
75.75000
 21
113.35800
  0
LINE
  8
Bezugspunkte
 62
   1
 39
0.100
  6
CONTINUOUS
 10
97.03600
 20
97.74500
 30
 0
 11
98.46200
 21
97.74500
  0
LINE
  8
Bezugspunkte
 62
   1
 39
0.100
  6
CONTINUOUS
 10
97.74900
 20
97.03200
 30
 0
 11
97.74900
 21
98.45800
  0
LINE
  8
Bezugspunkte
 62
   1
 39
0.100
  6
CONTINUOUS
 10
3.03600
 20
97.74500
 30
 0
 11
4.46200
 21
97.74500
  0
LINE
  8
Bezugspunkte
 62
   1
 39
0.100
  6
CONTINUOUS
 10
3.74900
 20
97.03200
 30
 0
 11
3.74900
 21
98.45800
  0
LINE
  8
Bezugspunkte
 62
   1
 39
0.100
  6
CONTINUOUS
 10
50.03600
 20
69.99500
 30
 0
 11
51.46200
 21
69.99500
  0
LINE
  8
Bezugspunkte
 62
   1
 39
0.100
  6
CONTINUOUS
 10
50.74900
 20
69.28200
 30
 0
 11
50.74900
 21
70.70800
  0
LINE
  8
Bezugspunkte
 62
   1
 39
0.100
  6
CONTINUOUS
 10
3.03600
 20
42.24500
 30
 0
 11
4.46200
 21
42.24500
  0
LINE
  8
Bezugspunkte
 62
   1
 39
0.100
  6
CONTINUOUS
 10
3.74900
 20
41.53200
 30
 0
 11
3.74900
 21
42.95800
  0
LINE
  8
Bezugspunkte
 62
   1
 39
0.100
  6
CONTINUOUS
 10
97.03600
 20
42.24500
 30
 0
 11
98.46200
 21
42.24500
  0
LINE
  8
Bezugspunkte
 62
   1
 39
0.100
  6
CONTINUOUS
 10
97.74900
 20
41.53200
 30
 0
 11
97.74900
 21
42.95800
  0
ENDSEC
  0
EOF
